<svg width="18" height="20" viewBox="0 0 18 20" fill="none" xmlns="http://www.w3.org/2000/svg">
<g clip-path="url(#clip0)">
<path fill-rule="evenodd" clip-rule="evenodd" d="M16.1033 15.1558C15.8026 15.9214 15.2204 16.5112 14.4609 16.8198C13.4853 17.2118 11.3611 17.19 9.98325 17.1759C9.75465 17.1735 9.54658 17.1714 9.36772 17.1714C9.19228 17.1714 8.98867 17.1734 8.76509 17.1755C7.38689 17.1889 5.24988 17.2097 4.27458 16.8198C3.5189 16.5151 2.93671 15.9253 2.63213 15.1558C2.24522 14.1674 2.26675 12.0152 2.28071 10.6192C2.28302 10.3876 2.28513 10.1768 2.28513 9.99561C2.28513 9.81786 2.28318 9.61156 2.28103 9.38504C2.26781 7.98871 2.24731 5.82358 2.63213 4.83545C2.93286 4.06982 3.51504 3.47998 4.27458 3.17139C5.25011 2.77939 7.37433 2.8012 8.75219 2.81534C8.9808 2.81769 9.18886 2.81982 9.36772 2.81982C9.54316 2.81982 9.74678 2.81785 9.97036 2.81567C11.3486 2.80228 13.4856 2.78151 14.4609 3.17139C15.2165 3.47607 15.7987 4.06592 16.1033 4.83545C16.4902 5.82381 16.4687 7.97598 16.4547 9.37198C16.4524 9.60359 16.4503 9.81439 16.4503 9.99561C16.4503 10.1768 16.4524 10.3876 16.4547 10.6193C16.4687 12.016 16.4902 14.1707 16.1033 15.1558ZM4.93773 9.99561C4.93773 7.51123 6.91561 5.50732 9.36772 5.50732C11.8198 5.50732 13.7977 7.51123 13.7977 9.99561C13.7977 12.48 11.8198 14.4839 9.36772 14.4839C6.91561 14.4839 4.93773 12.48 4.93773 9.99561ZM13.9789 6.37061C14.5495 6.37061 15.0122 5.90576 15.0122 5.32373C15.0122 4.74561 14.5495 4.27686 13.9789 4.27686C13.4083 4.27686 12.9456 4.74561 12.9456 5.32373C12.9456 5.90186 13.4045 6.37061 13.9789 6.37061Z" fill="white"/>
<path d="M9.36772 12.9136C7.7831 12.9136 6.48765 11.605 6.48765 9.99561C6.48765 8.38623 7.77925 7.07764 9.36772 7.07764C10.9562 7.07764 12.2478 8.38623 12.2478 9.99561C12.2478 11.605 10.9523 12.9136 9.36772 12.9136Z" fill="white"/>
<path fill-rule="evenodd" clip-rule="evenodd" d="M17.9463 6.38623C17.8807 4.98389 17.5646 3.7417 16.5506 2.71826C15.5404 1.69482 14.3144 1.37451 12.9302 1.3042C11.5037 1.22217 7.22791 1.22217 5.80137 1.3042C4.42109 1.37061 3.19503 1.69092 2.18103 2.71436C1.16703 3.73779 0.854733 4.97998 0.785334 6.38232C0.704368 7.82764 0.704368 12.1597 0.785334 13.605C0.850878 15.0073 1.16703 16.2495 2.18103 17.2729C3.19503 18.2964 4.41723 18.6167 5.80137 18.687C7.22791 18.769 11.5037 18.769 12.9302 18.687C14.3144 18.6206 15.5404 18.3003 16.5506 17.2729C17.5607 16.2495 17.8769 15.0073 17.9463 13.605C18.0272 12.1597 18.0272 7.83154 17.9463 6.38623ZM16.1033 15.1558C15.8026 15.9214 15.2204 16.5112 14.4609 16.8198C13.4853 17.2118 11.3611 17.19 9.98325 17.1759C9.75465 17.1735 9.54658 17.1714 9.36772 17.1714C9.19228 17.1714 8.98867 17.1734 8.76509 17.1755C7.38689 17.1889 5.24988 17.2097 4.27458 16.8198C3.5189 16.5151 2.93671 15.9253 2.63213 15.1558C2.24522 14.1674 2.26675 12.0152 2.28071 10.6192C2.28302 10.3876 2.28513 10.1768 2.28513 9.99561C2.28513 9.81786 2.28318 9.61156 2.28103 9.38504C2.26781 7.98871 2.24731 5.82358 2.63213 4.83545C2.93286 4.06982 3.51504 3.47998 4.27458 3.17139C5.25011 2.77939 7.37433 2.8012 8.75219 2.81534C8.9808 2.81769 9.18886 2.81982 9.36772 2.81982C9.54316 2.81982 9.74678 2.81785 9.97036 2.81567C11.3486 2.80228 13.4856 2.78151 14.4609 3.17139C15.2165 3.47607 15.7987 4.06592 16.1033 4.83545C16.4902 5.82381 16.4687 7.97598 16.4547 9.37198C16.4524 9.60359 16.4503 9.81439 16.4503 9.99561C16.4503 10.1768 16.4524 10.3876 16.4547 10.6193C16.4687 12.016 16.4902 14.1707 16.1033 15.1558Z" fill="white"/>
</g>
<defs>
<clipPath id="clip0">
<rect width="17.2727" height="20" fill="white" transform="translate(0.727539)"/>
</clipPath>
</defs>
</svg>
