<svg width="21" height="20" viewBox="0 0 21 20" fill="none" xmlns="http://www.w3.org/2000/svg">
<g clip-path="url(#clip0)">
<path d="M18.6717 5.92687C18.6844 6.10452 18.6844 6.28222 18.6844 6.45987C18.6844 11.8786 14.56 18.1223 7.02195 18.1223C4.69961 18.1223 2.54227 17.4497 0.727539 16.2822C1.0575 16.3203 1.37473 16.333 1.71738 16.333C3.63359 16.333 5.39758 15.6858 6.80621 14.5817C5.00418 14.5436 3.49402 13.3634 2.97371 11.7391C3.22754 11.7771 3.48133 11.8025 3.74785 11.8025C4.11586 11.8025 4.48391 11.7517 4.82652 11.6629C2.94836 11.2822 1.53969 9.63245 1.53969 7.64007V7.58933C2.08535 7.8939 2.71992 8.08425 3.39246 8.1096C2.2884 7.37354 1.56508 6.11722 1.56508 4.69589C1.56508 3.93448 1.76809 3.23651 2.12344 2.62737C4.14121 5.11468 7.17422 6.73901 10.5752 6.91671C10.5118 6.61214 10.4737 6.29491 10.4737 5.97765C10.4737 3.71874 12.3011 1.87866 14.5727 1.87866C15.7529 1.87866 16.8188 2.37358 17.5676 3.17308C18.4939 2.99542 19.3823 2.65276 20.1691 2.18323C19.8645 3.13503 19.2173 3.93452 18.3671 4.4421C19.192 4.35331 19.9914 4.12483 20.7275 3.80761C20.1692 4.61976 19.4712 5.34308 18.6717 5.92687Z" fill="white"/>
</g>
<defs>
<clipPath id="clip0">
<rect width="20" height="20" fill="white" transform="translate(0.727539)"/>
</clipPath>
</defs>
</svg>
