<svg width="144" height="56" viewBox="0 0 144 56" fill="none" xmlns="http://www.w3.org/2000/svg">
<path fill-rule="evenodd" clip-rule="evenodd" d="M87.2646 48.2931C89.7064 48.8059 90.5726 47.7199 90.6592 45.5524C90.6627 45.4635 90.6625 45.3743 90.6625 45.2853C90.6625 36.4627 90.6651 27.6402 90.6562 18.8177C90.6555 18.3325 90.6133 17.8344 90.4992 17.3646C90.2467 16.3245 89.6888 15.8648 88.6269 15.7744C88.1987 15.7378 87.7648 15.7685 87.2646 15.7685C87.2646 26.675 87.2646 37.4404 87.2646 48.2931ZM79.4785 9.29642C79.6572 9.22219 79.7376 9.15906 79.817 9.15992C83.5567 9.20086 87.2964 9.24461 91.0356 9.29794C91.345 9.30252 91.6573 9.35737 91.9617 9.42029C96.2826 10.3102 98.3471 12.707 98.653 17.192C98.6865 17.6803 98.6848 18.1716 98.685 18.6614C98.6867 27.7062 98.6965 36.751 98.6737 45.7957C98.6708 46.9029 98.5794 48.0262 98.3787 49.1144C97.7481 52.5352 95.4109 54.2477 92.2188 54.9931C91.3147 55.2038 90.3697 55.317 89.4413 55.3301C86.3677 55.3741 83.2931 55.3525 80.2187 55.3523C80.0027 55.3523 79.7865 55.321 79.4785 55.297C79.4785 39.9475 79.4785 24.6457 79.4785 9.29642Z" fill="white"/>
<path fill-rule="evenodd" clip-rule="evenodd" d="M108.497 32.0665C108.497 36.3864 108.49 40.706 108.504 45.0256C108.506 45.7799 108.53 46.5461 108.663 47.2852C108.821 48.1562 109.434 48.5841 110.282 48.5749C111.073 48.5659 111.617 48.1738 111.806 47.3488C111.943 46.7466 112.021 46.1169 112.022 45.4991C112.036 36.5481 112.036 27.5972 112.023 18.6462C112.022 18.0284 111.948 17.3986 111.812 16.7959C111.609 15.894 111.066 15.5002 110.204 15.5064C109.342 15.5128 108.795 15.9273 108.645 16.8455C108.524 17.588 108.505 18.3528 108.503 19.1077C108.491 23.4273 108.497 27.7469 108.497 32.0665ZM100.473 32.2507C100.474 27.7049 100.456 23.1589 100.487 18.6133C100.494 17.5057 100.56 16.3803 100.767 15.2951C101.4 11.9858 103.483 9.96977 106.661 9.05395C109.117 8.34603 111.605 8.34537 114.043 9.10663C117.374 10.1465 119.358 12.4105 119.848 15.8977C119.972 16.7769 120.045 17.671 120.047 18.5585C120.06 27.6945 120.074 36.8307 120.035 45.9666C120.029 47.2904 119.849 48.6344 119.573 49.9314C119.098 52.1606 117.74 53.7952 115.685 54.7476C112.137 56.3916 108.515 56.4088 104.942 54.8497C102.119 53.6184 100.894 51.226 100.583 48.2905C100.49 47.4067 100.48 46.5109 100.477 45.6205C100.468 41.1638 100.473 36.7072 100.473 32.2507Z" fill="white"/>
<path fill-rule="evenodd" clip-rule="evenodd" d="M58.6307 9.21326C61.1979 9.21326 63.7085 9.21326 66.3597 9.21326C66.3597 9.81756 66.3597 10.3409 66.3597 10.8644C66.3599 22.2694 66.3564 33.6746 66.368 45.0795C66.3688 45.831 66.4161 46.5964 66.5661 47.33C66.7235 48.0996 67.2228 48.3845 68.0457 48.3649C68.8122 48.3468 69.2406 48.0885 69.3967 47.3333C69.539 46.6439 69.563 45.9211 69.5632 45.213C69.5728 33.7634 69.5704 22.3138 69.5706 10.8642C69.5706 10.3418 69.5706 9.8193 69.5706 9.21326C72.2264 9.21326 74.7372 9.21326 77.3937 9.21326C77.3937 9.7786 77.3937 10.2588 77.3937 10.739C77.3935 22.4113 77.3983 34.0836 77.3854 45.7559C77.3841 46.867 77.3765 47.9953 77.1937 49.0857C76.5438 52.9619 74.5648 54.9803 70.7002 55.7037C68.579 56.1007 66.4365 56.0548 64.3387 55.5043C61.3396 54.7171 59.4914 52.7829 58.8851 49.7383C58.6866 48.7402 58.573 47.7075 58.571 46.6902C58.549 34.5726 58.5547 22.4547 58.5573 10.3368C58.5573 9.98888 58.6017 9.64102 58.6307 9.21326Z" fill="white"/>
<path fill-rule="evenodd" clip-rule="evenodd" d="M0.0951031 36.7445C2.67886 36.7445 5.19469 36.7445 7.88925 36.7445C7.88925 37.2975 7.88925 37.7735 7.88925 38.2496C7.88947 40.7903 7.88316 43.3311 7.89469 45.8718C7.89752 46.4495 7.91994 47.0336 8.00767 47.6031C8.1372 48.4449 8.54646 48.789 9.33297 48.8263C10.1166 48.8635 10.5816 48.5407 10.773 47.7448C10.8759 47.3164 10.9221 46.8649 10.9247 46.4232C10.9389 44.0164 10.9123 41.609 10.9389 39.2022C10.9554 37.6991 10.4155 36.5242 9.13813 35.6955C8.24125 35.1134 7.3422 34.5306 6.48494 33.8932C5.23518 32.9646 3.99305 32.0213 2.79989 31.0217C1.12412 29.6183 0.360684 27.7246 0.310616 25.596C0.236166 22.433 0.204819 19.2645 0.309309 16.1035C0.435787 12.2721 2.56609 9.79395 6.30556 8.9184C8.41911 8.42338 10.5538 8.41619 12.6712 8.88727C16.0981 9.64984 18.174 11.8727 18.3608 15.397C18.5395 18.7717 18.3993 22.1633 18.3993 25.5337C17.4186 25.8309 12.6471 25.8936 11.0026 25.6276C10.9804 25.2612 10.9373 24.8737 10.9362 24.486C10.9293 22.2575 10.9417 20.0286 10.9249 17.8001C10.9208 17.2694 10.8568 16.7352 10.7734 16.2101C10.6665 15.5399 10.2305 15.2266 9.56023 15.2031C8.80812 15.177 8.38297 15.4417 8.17595 16.1812C8.06972 16.5608 8.03728 16.9714 8.03467 17.3684C8.02095 19.5079 8.04795 21.6478 8.01856 23.787C8.00245 24.9562 8.42651 25.8642 9.38935 26.5208C10.6043 27.3488 11.8307 28.1602 13.0335 29.0055C13.9436 29.6452 14.8342 30.314 15.7163 30.993C17.7358 32.547 18.6418 34.6693 18.6731 37.157C18.718 40.7224 18.699 44.2888 18.6677 47.8545C18.661 48.6058 18.5377 49.3677 18.3745 50.1041C17.6441 53.3991 15.5402 55.2477 11.7791 55.7747C9.74418 56.0601 7.68941 56.0253 5.66098 55.5816C2.74482 54.9438 0.962595 53.1587 0.334126 50.2558C0.146913 49.3901 0.0341501 48.4919 0.0241364 47.6072C-0.0137415 44.309 0.00323823 41.0104 0.00737433 37.7119C0.00759202 37.4113 0.0604905 37.1107 0.0951031 36.7445Z" fill="white"/>
<path fill-rule="evenodd" clip-rule="evenodd" d="M29.5981 26.6539C29.0876 32.2487 28.5567 38.0671 28.0211 43.9353C29.1973 43.9353 30.1913 43.9353 31.241 43.9353C30.6815 38.0492 30.1314 32.2635 29.5981 26.6539ZM25.6418 9.17883C28.2952 9.17883 30.7821 9.17883 33.2551 9.17883C33.8069 10.1256 39.944 53.697 40.0049 55.2841C37.5283 55.2841 35.0543 55.2841 32.4849 55.2841C32.3172 53.7967 32.1549 52.3551 31.9844 50.8422C30.4238 50.8422 28.9298 50.8422 27.2938 50.8422C27.1212 52.3109 26.9477 53.7869 26.7727 55.2754C24.2251 55.2754 21.7937 55.2754 19.2461 55.2754C21.3855 39.8554 23.5119 24.5307 25.6418 9.17883Z" fill="white"/>
<path fill-rule="evenodd" clip-rule="evenodd" d="M41.5467 9.20129C44.0515 9.20129 46.5756 9.20129 49.2677 9.20129C49.47 12.3301 49.33 15.4694 49.3552 18.6035C49.3811 21.8096 49.3611 25.0164 49.3611 28.2228C49.3611 31.3845 49.3611 34.5466 49.3611 37.7084C49.3611 40.8646 49.3609 44.0209 49.3609 47.3429C51.8839 47.3429 54.3074 47.3429 56.8376 47.3429C56.8376 50.0588 56.8376 52.6079 56.8376 55.2565C51.7431 55.2565 46.6502 55.2565 41.5591 55.2565C41.2683 54.1957 41.2413 10.4702 41.5467 9.20129Z" fill="white"/>
<g filter="url(#filter0_d)">
<path d="M132.8 16.1352V10.5012H127.277V7.81165H132.773V2H135.46V7.7322H141.04C141.057 8.67566 141.054 9.58887 141.041 10.4694H135.506V16.1352H132.8Z" fill="white"/>
</g>
<defs>
<filter id="filter0_d" x="125.277" y="0" width="17.7747" height="18.1352" filterUnits="userSpaceOnUse" color-interpolation-filters="sRGB">
<feFlood flood-opacity="0" result="BackgroundImageFix"/>
<feColorMatrix in="SourceAlpha" type="matrix" values="0 0 0 0 0 0 0 0 0 0 0 0 0 0 0 0 0 0 127 0"/>
<feOffset/>
<feGaussianBlur stdDeviation="1"/>
<feColorMatrix type="matrix" values="0 0 0 0 0.780392 0 0 0 0 0.890196 0 0 0 0 0.823529 0 0 0 1 0"/>
<feBlend mode="normal" in2="BackgroundImageFix" result="effect1_dropShadow"/>
<feBlend mode="normal" in="SourceGraphic" in2="effect1_dropShadow" result="shape"/>
</filter>
</defs>
</svg>
