<svg width="40" height="40" viewBox="0 0 40 40" fill="none" xmlns="http://www.w3.org/2000/svg">
<path d="M38.9123 35.0851L28.5402 24.713C30.2689 22.2047 31.2858 19.1541 31.2858 15.8831C31.2858 7.25668 24.2694 0.240234 15.6429 0.240234C7.01641 0.240234 0 7.25668 0 15.8831C0 24.5096 7.01641 31.5261 15.6429 31.5261C18.9138 31.5261 21.9645 30.5091 24.4727 28.7805L34.8448 39.1526C35.4041 39.7119 36.1329 40 36.8786 40C37.6073 40 38.353 39.7119 38.9123 39.1526C39.4547 38.6103 39.7597 37.8815 39.7597 37.1188C39.7597 36.3562 39.4547 35.6274 38.9123 35.0851ZM1.71173 15.8831C1.71173 8.18881 7.96549 1.93502 15.6598 1.93502C23.3542 1.93502 29.6079 8.18881 29.6079 15.8831C29.6079 23.5775 23.3542 29.8313 15.6598 29.8313C7.96549 29.8313 1.71173 23.5775 1.71173 15.8831ZM37.709 37.9493C37.2514 38.4069 36.5057 38.4069 36.0481 37.9493L25.8286 27.7297C26.4217 27.2213 26.981 26.662 27.4895 26.0688L37.709 36.2884C37.9294 36.5087 38.048 36.8138 38.048 37.1188C38.0649 37.4408 37.9463 37.7289 37.709 37.9493Z" fill="#7FEFCF"/>
<path d="M16.6424 4.867C13.4223 4.76531 10.3886 5.95168 8.11759 8.22269C5.84657 10.4937 4.64328 13.5274 4.76191 16.7475C4.77886 17.2051 5.15172 17.5609 5.60931 17.5609C5.62626 17.5609 5.62626 17.5609 5.64321 17.5609C6.11775 17.544 6.47365 17.1542 6.4567 16.6797C6.37196 13.9172 7.38884 11.3411 9.3209 9.40902C11.253 7.47696 13.846 6.44313 16.5915 6.54482C17.0661 6.59566 17.4559 6.18895 17.4728 5.73135C17.4728 5.27376 17.1169 4.88394 16.6424 4.867Z" fill="#7FEFCF"/>
</svg>
