<svg width="25" height="28" viewBox="0 0 25 28" fill="none" xmlns="http://www.w3.org/2000/svg">
<path d="M19.5639 5.87971L18.2347 7.59738C21.0993 9.83998 22.5287 13.4709 21.9651 17.0738C21.112 22.5319 16.0034 26.2756 10.5778 25.4152C5.15259 24.5554 1.43266 19.4158 2.28547 13.9581C2.69872 11.3139 4.11118 8.99039 6.26215 7.41491C8.13979 6.04005 10.3849 5.37873 12.6722 5.50969L10.8017 7.48384L12.1893 8.81554L15.1419 5.69724L15.1426 5.69833L16.4653 4.30097L15.0788 2.97036L15.0781 2.97072L11.9794 6.10352e-05L10.6557 1.39742L12.675 3.33239C9.9298 3.2018 7.24262 4.00459 4.98852 5.65516C2.37057 7.57272 0.6516 10.4012 0.148204 13.62C-0.889959 20.2632 3.63736 26.519 10.241 27.5653C10.8767 27.6657 11.5081 27.7143 12.1323 27.7143C17.9935 27.714 23.1634 23.4156 24.1024 17.4119C24.7886 13.0272 23.0495 8.6084 19.5639 5.87971Z" fill="#7FEFCF"/>
<path d="M8.08398 15.1409L11.6867 16.1701L10.3024 19.631L16.603 14.7306L12.8567 13.6602L13.5107 10.3929L8.08398 15.1409Z" fill="#7FEFCF"/>
</svg>
