<svg width="42" height="48" viewBox="0 0 42 48" fill="none" xmlns="http://www.w3.org/2000/svg">
<path d="M33.8839 10.1833L31.5818 13.1583C36.5432 17.0423 39.0189 23.3309 38.0427 29.571C36.565 39.0243 27.7172 45.5082 18.3203 44.0179C8.92407 42.5289 2.4813 33.6273 3.95834 24.1747C4.67407 19.5951 7.1204 15.5709 10.8458 12.8422C14.0978 10.461 17.9862 9.31564 21.9476 9.54245L18.7081 12.9616L21.1114 15.268L26.2251 9.86727L26.2264 9.86916L28.5172 7.44899L26.1158 5.14443L26.1146 5.14506L20.7479 0L18.4552 2.42017L21.9526 5.77146C17.198 5.54528 12.5439 6.93568 8.63991 9.79439C4.10573 13.1155 1.12854 18.0143 0.256683 23.5891C-1.54137 35.0949 6.29975 45.9298 17.737 47.7418C18.838 47.9158 19.9316 48 21.0127 48C31.164 47.9994 40.1181 40.5548 41.7444 30.1566C42.9329 22.5625 39.9207 14.9093 33.8839 10.1833Z" fill="#7FEFCF"/>
<path d="M14 26.2232L20.2397 28.0058L17.8422 34L28.7547 25.5126L22.2662 23.6588L23.3989 18L14 26.2232Z" fill="#7FEFCF"/>
</svg>
