<svg width="42" height="48" viewBox="0 0 42 48" fill="none" xmlns="http://www.w3.org/2000/svg">
<path d="M33.783 10.153L31.4878 13.1191C36.4344 16.9916 38.9027 23.2614 37.9295 29.483C36.4562 38.9081 27.6347 45.3727 18.2658 43.8869C8.89751 42.4023 2.47391 33.5272 3.94656 24.1027C4.66015 19.5367 7.0992 15.5245 10.8135 12.804C14.0558 10.4299 17.9326 9.28791 21.8823 9.51404L18.6525 12.923L21.0485 15.2226L26.1471 9.8379L26.1483 9.83978L28.4323 7.42682L26.0381 5.12911L26.0369 5.12974L20.6861 0L18.4003 2.41296L21.8873 5.75428C17.1468 5.52877 12.5066 6.91503 8.61419 9.76524C4.09351 13.0765 1.12518 17.9607 0.255919 23.5189C-1.53678 34.9905 6.281 45.7931 17.6842 47.5997C18.782 47.7732 19.8723 47.8571 20.9502 47.8571C31.0712 47.8565 39.9986 40.4341 41.6201 30.0668C42.8051 22.4953 39.8019 14.8649 33.783 10.153Z" fill="#EC8EFC"/>
<path d="M29.2817 21.7212H27.0657C27.0738 21.4758 27.0782 21.2289 27.0782 20.9808C27.0782 20.7014 26.8516 20.4749 26.5723 20.4749H15.7349C15.4555 20.4749 15.229 20.7014 15.229 20.9808C15.229 21.2289 15.2333 21.4758 15.2414 21.7212H13.0254C12.746 21.7212 12.5195 21.9477 12.5195 22.2271C12.5195 24.4939 13.112 26.6325 14.1877 28.2492C15.251 29.8474 16.6674 30.764 18.1973 30.8532C18.5442 31.2307 18.911 31.5384 19.2929 31.7732V34.0217H18.4442C17.4182 34.0217 16.5836 34.8564 16.5836 35.8823V36.731H16.5476C16.2682 36.731 16.0417 36.9576 16.0417 37.2369C16.0417 37.5163 16.2682 37.7428 16.5476 37.7428H25.7595C26.0389 37.7428 26.2654 37.5163 26.2654 37.2369C26.2654 36.9576 26.0389 36.731 25.7595 36.731H25.7235V35.8823C25.7235 34.8564 24.8888 34.0217 23.8629 34.0217H23.0142V31.7732C23.3961 31.5384 23.7627 31.2307 24.1096 30.8532C25.6397 30.764 27.056 29.8474 28.1194 28.2492C29.1951 26.6325 29.7876 24.4939 29.7876 22.2271C29.7876 21.9477 29.561 21.7212 29.2817 21.7212ZM15.0301 27.6887C14.1428 26.3552 13.6214 24.6113 13.542 22.733H15.2979C15.4804 25.042 16.0224 27.1761 16.8695 28.8703C17.0044 29.1401 17.1455 29.3949 17.2918 29.6351C16.4504 29.3173 15.6717 28.6531 15.0301 27.6887ZM27.277 27.6887C26.6354 28.6531 25.8567 29.3173 25.0152 29.6351C25.1617 29.3949 25.3027 29.1401 25.4376 28.8703C26.2847 27.1761 26.8266 25.042 27.0092 22.733H28.7651C28.6857 24.6113 28.1643 26.3552 27.277 27.6887Z" fill="#EC8EFC"/>
</svg>
