<svg width="42" height="48" viewBox="0 0 42 48" fill="none" xmlns="http://www.w3.org/2000/svg">
<path d="M33.783 10.2959L31.4878 13.262C36.4344 17.1345 38.9027 23.4043 37.9295 29.6259C36.4562 39.051 27.6347 45.5156 18.2658 44.0298C8.89751 42.5451 2.47391 33.6701 3.94656 24.2456C4.66015 19.6796 7.0992 15.6674 10.8135 12.9469C14.0558 10.5728 17.9326 9.43079 21.8823 9.65693L18.6525 13.0659L21.0485 15.3655L26.1471 9.98078L26.1483 9.98266L28.4323 7.5697L26.0381 5.272L26.0369 5.27262L20.6861 0.142883L18.4003 2.55585L21.8873 5.89716C17.1468 5.67165 12.5066 7.05792 8.61419 9.90812C4.09351 13.2194 1.12518 18.1035 0.255919 23.6618C-1.53678 35.1334 6.281 45.9359 17.6842 47.7425C18.782 47.9161 19.8723 48 20.9502 48C31.0712 47.9994 39.9986 40.5769 41.6201 30.2097C42.8051 22.6382 39.8019 15.0078 33.783 10.2959Z" fill="#FFD865"/>
<path d="M19.6252 29.3003L19.3957 29.5301C19.1738 29.7529 18.8779 29.8756 18.5629 29.8756C18.2478 29.8756 17.9519 29.7529 17.7304 29.5305L14.5911 26.3891C14.3685 26.1671 14.2458 25.871 14.2458 25.5558C14.2458 25.2405 14.3685 24.9445 14.5908 24.7228L14.8207 24.4927C14.974 24.3393 15.2224 24.3393 15.3757 24.4927L19.6252 28.7451C19.7786 28.8984 19.7786 29.1469 19.6252 29.3003Z" fill="#FFD865"/>
<path d="M24.6595 24.2625C24.5828 24.3392 24.4824 24.3776 24.382 24.3776C24.2816 24.3776 24.1812 24.3392 24.1045 24.2625L19.8549 20.0102C19.7016 19.8568 19.7016 19.6082 19.8549 19.4549L20.0845 19.2251C20.5284 18.7795 21.3067 18.7799 21.7498 19.2247L24.8891 22.366C25.1117 22.5881 25.2344 22.8842 25.2344 23.1994C25.2344 23.5146 25.1117 23.8107 24.8894 24.0324L24.6595 24.2625Z" fill="#FFD865"/>
<path d="M20.735 28.1896C20.6583 28.2664 20.5579 28.3047 20.4575 28.3047C20.3571 28.3047 20.2566 28.2664 20.18 28.1896L15.9304 23.9373C15.7771 23.7839 15.7771 23.5354 15.9304 23.382L18.7451 20.5655C18.8984 20.4121 19.1467 20.4121 19.3 20.5655L23.5496 24.8178C23.7029 24.9712 23.7029 25.2197 23.5496 25.3731L22.9853 25.9378C26.0244 28.573 29.9305 32.3535 31.0538 33.4775C31.3504 33.7743 31.5137 34.1686 31.5137 34.5881C31.5137 35.4545 30.8096 36.159 29.9438 36.159C29.5245 36.159 29.1306 35.9956 28.8339 35.6988C27.4817 34.3457 23.7957 30.526 21.2898 27.6344L20.735 28.1896Z" fill="#FFD865"/>
<path d="M16.6001 32.2345H22.0945C23.393 32.2345 24.4492 33.2793 24.4492 34.5778C24.4492 35.4436 23.7452 36.1476 22.8794 36.1476H15.8152C14.9494 36.1476 14.2453 35.4436 14.2453 34.5778C14.2454 33.2793 15.3016 32.2345 16.6001 32.2345Z" fill="#FFD865"/>
</svg>
