<svg width="40" height="40" viewBox="0 0 40 40" fill="none" xmlns="http://www.w3.org/2000/svg">
<path d="M28.7295 34.4448L28.8591 34.6587C26.1951 36.2723 23.1317 37.125 20 37.125C10.557 37.125 2.875 29.443 2.875 20C2.875 10.557 10.557 2.875 20 2.875C29.443 2.875 37.125 10.557 37.125 20C37.125 23.3774 36.1205 26.6643 34.2214 29.505C33.8186 30.1076 33.9805 30.9227 34.5831 31.3255L34.4441 31.5334L34.5831 31.3255C35.1857 31.7285 36.0008 31.5664 36.4036 30.9639L36.6115 31.1028L36.4037 30.9639C38.5932 27.6888 39.75 23.8977 39.75 20C39.75 14.7241 37.6959 9.76528 33.9654 6.03459C30.2347 2.30405 25.2759 0.25 20 0.25C14.7241 0.25 9.76529 2.30405 6.03459 6.03459C6.03459 6.03459 6.03459 6.03459 6.03459 6.03459M28.7295 34.4448L5.85781 34.1422C2.08039 30.3646 0 25.3422 0 20C0 14.6578 2.08039 9.63539 5.85781 5.85781L6.03459 6.03459M28.7295 34.4448L28.8591 34.6587C29.4789 34.2831 30.2861 34.4813 30.6616 35.1013C31.0371 35.7213 30.839 36.5283 30.219 36.9039C27.1454 38.7657 23.6118 39.75 20 39.75C14.7241 39.75 9.76528 37.6959 6.03459 33.9654C2.30405 30.2347 0.25 25.2759 0.25 20C0.25 14.7241 2.30405 9.76529 6.03459 6.03459M28.7295 34.4448L6.03459 6.03459M25.4741 23.3551L25.6574 23.5251L25.6658 23.516L25.6733 23.5061C25.9138 23.1888 26.2922 22.9844 26.7188 22.9844C27.4436 22.9844 28.0312 23.572 28.0312 24.2969C28.0312 24.6699 27.8751 25.0057 27.624 25.2454L27.6172 25.2519L27.6109 25.2589C27.3454 25.5533 24.636 28.4219 20 28.4219C15.3641 28.4219 12.6546 25.5533 12.3891 25.2589L12.3828 25.2519L12.376 25.2454C12.1249 25.0057 11.9688 24.6699 11.9688 24.2969C11.9688 23.572 12.5564 22.9844 13.2812 22.9844C13.7078 22.9844 14.0862 23.1888 14.3267 23.5061L14.3342 23.516L14.3426 23.5251L14.5259 23.3551C14.3426 23.5251 14.3427 23.5252 14.3428 23.5253L14.343 23.5255L14.3436 23.5261L14.3453 23.5279L14.3509 23.5338L14.371 23.5547C14.3884 23.5724 14.4137 23.5977 14.4467 23.6294C14.5127 23.6929 14.6096 23.7823 14.7364 23.8889C14.9898 24.102 15.363 24.3846 15.8464 24.6669C16.8131 25.2314 18.2248 25.7969 20 25.7969C21.7752 25.7969 23.1869 25.2314 24.1536 24.6669C24.637 24.3846 25.0102 24.102 25.2636 23.8889C25.3904 23.7823 25.4873 23.6929 25.5533 23.6294C25.5863 23.5977 25.6116 23.5724 25.629 23.5547L25.6491 23.5338L25.6547 23.5279L25.6564 23.5261L25.657 23.5255L25.6572 23.5253C25.6573 23.5252 25.6574 23.5251 25.4741 23.3551ZM29.2969 16.9375C28.572 16.9375 27.9844 16.3499 27.9844 15.625C27.9844 15.0561 27.522 14.5938 26.9531 14.5938C26.3843 14.5938 25.9219 15.0561 25.9219 15.625C25.9219 16.3499 25.3343 16.9375 24.6094 16.9375C23.8845 16.9375 23.2969 16.3499 23.2969 15.625C23.2969 13.6092 24.9373 11.9688 26.9531 11.9688C28.969 11.9688 30.6094 13.6092 30.6094 15.625C30.6094 16.3499 30.0218 16.9375 29.2969 16.9375ZM13.125 11.9688C15.1408 11.9688 16.7812 13.6092 16.7812 15.625C16.7812 16.3499 16.1936 16.9375 15.4688 16.9375C14.7439 16.9375 14.1562 16.3499 14.1562 15.625C14.1562 15.0561 13.6939 14.5938 13.125 14.5938C12.5561 14.5938 12.0938 15.0561 12.0938 15.625C12.0938 16.3499 11.5061 16.9375 10.7812 16.9375C10.0564 16.9375 9.46875 16.3499 9.46875 15.625C9.46875 13.6092 11.1092 11.9688 13.125 11.9688Z" fill="#7FEFCF" stroke="#1B1B1B" stroke-width="0.5"/>
</svg>
