<svg width="41" height="40" viewBox="0 0 41 40" fill="none" xmlns="http://www.w3.org/2000/svg">
<path d="M39.6361 6.0721L34.1133 0.549347C33.3725 -0.19151 32.0928 -0.174673 31.3856 0.549347L10.8268 21.1081C10.6416 21.2933 10.4732 21.4617 6.81947 30.6214L6.66793 31.0087C6.38169 31.7327 6.53323 32.5577 7.08888 33.0965C7.44247 33.4501 7.9476 33.669 8.45273 33.669C8.7053 33.669 8.94102 33.6185 9.17675 33.5343L9.42931 33.4333C9.9176 33.2481 10.3554 33.0629 10.7932 32.8945C10.81 32.8945 10.81 32.8945 10.8268 32.8776C18.7574 29.7122 18.9258 29.5438 19.0941 29.3754C19.2457 29.2239 39.5014 8.96817 39.6698 8.7998C40.0402 8.42937 40.2423 7.94108 40.2254 7.43595C40.1917 6.91398 39.9897 6.44253 39.6361 6.0721ZM8.78948 31.8506L8.53692 31.9516C8.45273 31.9853 8.33487 31.9684 8.26751 31.9011C8.20016 31.8337 8.18333 31.7327 8.217 31.6317L8.38538 31.2276C8.38538 31.2107 8.40222 31.1939 8.40222 31.1939L8.99153 31.7832C8.90735 31.8169 8.85684 31.8337 8.78948 31.8506ZM10.6753 31.1097L9.07572 29.5101C10.5238 25.9237 11.2815 24.0715 11.6687 23.1455L15.3225 26.7993C15.3225 26.7993 15.3225 26.8161 15.3393 26.8161C15.3393 26.8161 15.3562 26.8161 15.3562 26.8329L17.0399 28.5167C16.0802 28.9208 14.2449 29.6785 10.6753 31.1097ZM38.4406 7.60433C38.3059 7.73904 21.8387 24.2063 18.4711 27.5738L17.1073 26.2099L34.9047 8.42936C35.2415 8.09261 35.2415 7.57066 34.9047 7.2339C34.568 6.89715 34.046 6.91399 33.7092 7.2339L15.9118 25.0145L12.5948 21.6975C15.9455 18.3468 32.5643 1.72795 32.5643 1.72795C32.6316 1.6606 32.699 1.66064 32.7327 1.66064C32.7663 1.66064 32.8505 1.67744 32.9179 1.72795L38.4406 7.2339C38.4911 7.28442 38.5248 7.35174 38.5248 7.41909C38.508 7.50328 38.4911 7.55382 38.4406 7.60433Z" fill="#7FEFCF"/>
<path d="M31.1497 20.6367C30.6782 20.6367 30.3078 21.0071 30.3078 21.4786V36.6325C30.3078 38.3162 29.7016 38.3162 29.2134 38.3162H3.36753C2.34044 38.3162 1.68377 37.6596 1.68377 36.6325V10.9719C1.68377 10.5004 1.68376 9.69219 3.53591 9.69219H18.5214C18.9929 9.69219 19.3633 9.32176 19.3633 8.85031C19.3633 8.37885 18.9929 8.00842 18.5214 8.00842H3.53591C0.336751 8.00842 0 10.0795 0 10.9719V36.6325C0 38.5856 1.41436 40 3.36753 40H29.2134C30.2573 40 31.9916 39.5622 31.9916 36.6325V21.4786C31.9916 21.0071 31.6211 20.6367 31.1497 20.6367Z" fill="#7FEFCF"/>
</svg>
